<svg xmlns="http://www.w3.org/2000/svg" width="16" height="16"><g transform="translate(-126.176 -2.014)"><circle cx="8" cy="8" r="8" transform="translate(126.176 2.014)" fill="#2daae1"/><path d="M139.274 6.848a4.175 4.175 0 01-1.2.329 2.1 2.1 0 00.92-1.157 4.179 4.179 0 01-1.328.508 2.092 2.092 0 00-3.618 1.431 2.116 2.116 0 00.054.477 5.939 5.939 0 01-4.311-2.185 2.094 2.094 0 00.647 2.792 2.082 2.082 0 01-.947-.261v.026a2.092 2.092 0 001.678 2.051 2.081 2.081 0 01-.551.073 2.123 2.123 0 01-.394-.037 2.094 2.094 0 001.954 1.452 4.211 4.211 0 01-3.1.866 5.948 5.948 0 009.157-5.011q0-.136-.006-.271a4.262 4.262 0 001.045-1.083z" fill="#fff"/></g></svg>