<svg xmlns="http://www.w3.org/2000/svg" width="24" height="24.012"><g fill="#722ed1"><path d="M8 7.598v-1.77a3 3 0 10-2 0v2.184a1 1 0 00.293.707L9 11.426v11.586a1 1 0 002 0v-12a1 1 0 00-.293-.707z"/><path d="M4 16.598v-1.77a3 3 0 10-2 0v2.184a1 1 0 00.293.707L5 20.426v2.586a1 1 0 002 0v-3a1 1 0 00-.293-.707zm14-8.586V5.828a3 3 0 10-2 0v1.77l-2.707 2.707a1 1 0 00-.293.707v12a1 1 0 002 0V11.426l2.707-2.707A1 1 0 0018 8.012z"/><path d="M24 12.012a3 3 0 10-4 2.816v1.77l-2.707 2.707a1 1 0 00-.293.707v3a1 1 0 002 0v-2.586l2.707-2.707a1 1 0 00.293-.707v-2.184a3 3 0 002-2.816z"/></g></svg>