<svg xmlns="http://www.w3.org/2000/svg" width="134" height="35.349"><path d="M77.988 9.921L85.7 7.054 77.988 4.02V0l13.2 5.328v3.28l-13.2 5.333zM5.087 35.344C2.3 35.344 0 33.95 0 30.836v-.166c0-3.773 3.28-5.087 7.3-5.087h1.887v-.74c0-1.56-.654-2.46-2.294-2.46A2.039 2.039 0 004.6 24.35H.493c.327-3.45 3.034-5.086 6.641-5.086 3.688 0 6.394 1.56 6.394 5.414v10.334h-4.18v-1.807a5.042 5.042 0 01-4.261 2.139zm4.1-5.494v-1.474h-1.72c-2.133 0-3.2.574-3.2 1.967v.166c0 1.067.654 1.806 2.133 1.806a2.5 2.5 0 002.787-2.465zm14.1 5.494c-4.267 0-7.381-2.626-7.381-7.874v-.241c0-5.253 3.28-8.04 7.381-8.04 3.527 0 6.394 1.806 6.727 5.821h-4.1c-.247-1.474-1.067-2.46-2.541-2.46-1.806 0-3.114 1.474-3.114 4.508v.493c0 3.114 1.147 4.508 3.114 4.508a2.867 2.867 0 002.787-2.787h3.94c-.25 3.528-2.63 6.072-6.811 6.072zm16.075 0c-4.267 0-7.381-2.626-7.381-7.874v-.241c0-5.247 3.28-8.035 7.381-8.035 3.527 0 6.394 1.806 6.727 5.821h-4.1c-.247-1.474-1.067-2.46-2.541-2.46-1.806 0-3.114 1.474-3.114 4.508v.493c0 3.114 1.147 4.508 3.114 4.508a2.867 2.867 0 002.787-2.787h3.934c-.245 3.523-2.624 6.067-6.805 6.067zm16.155 0c-4.427 0-7.461-2.626-7.461-7.788v-.327c0-5.167 3.2-8.035 7.381-8.035 3.854 0 7.054 2.133 7.054 7.3v1.887H52.485c.166 2.787 1.394 3.854 3.2 3.854a2.768 2.768 0 002.868-1.967h4.02c-.574 2.862-2.953 5.076-7.054 5.076zM52.485 25.5h5.821c-.08-2.294-1.147-3.28-2.868-3.28-1.393.088-2.626.823-2.953 3.28zm12.628-5.9h4.347v2.3a4.941 4.941 0 014.674-2.626c2.787 0 4.674 1.721 4.674 5.414v10.329h-4.347v-9.675c0-1.806-.74-2.626-2.294-2.626a2.585 2.585 0 00-2.707 2.868v9.428h-4.347zm21.649-4.674V19.6h2.953v3.2h-2.953v7.3c0 1.147.493 1.721 1.56 1.721a3.636 3.636 0 001.474-.247v3.361a8.36 8.36 0 01-2.46.327c-3.361 0-4.92-1.56-4.92-4.674V22.8h-1.8v-3.2h1.806v-2.871zm19.189 20.089H101.6v-2.292a4.77 4.77 0 01-4.5 2.626c-2.787 0-4.84-1.721-4.84-5.328V19.6h4.34v9.841c0 1.806.74 2.626 2.214 2.626a2.63 2.63 0 002.707-2.868v-9.517h4.347v15.335zm3.2-15.415h4.349v2.868a4.644 4.644 0 014.674-3.034V23.7c-2.953 0-4.674.9-4.674 3.446V35.1h-4.347zm17.8 15.742c-4.427 0-7.461-2.626-7.461-7.788v-.327c0-5.167 3.2-8.035 7.381-8.035 3.854 0 7.054 2.133 7.054 7.3v1.887h-10.013c.166 2.787 1.394 3.854 3.2 3.854a2.768 2.768 0 002.868-1.967H134c-.654 2.862-3.034 5.076-7.054 5.076zm-3.119-9.842h5.821c-.08-2.294-1.147-3.28-2.868-3.28-1.313.088-2.546.823-2.953 3.28z" fill="#8989a2"/></svg>