<svg xmlns="http://www.w3.org/2000/svg" width="130.425" height="40.705"><path d="M68.738 10.228a2.649 2.649 0 11-2.649-2.648 2.643 2.643 0 012.649 2.648zm-10.92 5.338v.652a5.088 5.088 0 00-3.952-1.631 8.069 8.069 0 000 16.135 4.947 4.947 0 003.952-1.671v.692a.557.557 0 00.571.57h3.3v-15.32h-3.3a.586.586 0 00-.571.572zm0 9.819a4.047 4.047 0 01-3.3 1.671 4.405 4.405 0 110-8.8 4.159 4.159 0 013.3 1.671zm6.316-10.39h3.911v15.32h-3.911V14.994zm58.428-.408a5.091 5.091 0 00-3.953 1.631v-8.6h-3.911v22.695h3.3a.582.582 0 00.57-.571v-.692a5.046 5.046 0 003.952 1.671 8.07 8.07 0 00.042-16.136zm-.652 12.428a3.989 3.989 0 01-3.3-1.671v-5.46a4.422 4.422 0 013.3-1.671 4.4 4.4 0 110 8.8zm-9.249-5.785v9.127h-3.912v-8.679c0-2.526-.815-3.545-3.014-3.545a4.379 4.379 0 00-3.179 1.508v10.675h-3.91V14.995h3.1a.583.583 0 01.571.571v.652a5.612 5.612 0 014.155-1.631 6.345 6.345 0 014.279 1.467c1.385 1.141 1.915 2.607 1.915 5.175zM89.15 14.588a5.09 5.09 0 00-3.952 1.631v-8.6h-3.911v22.695h3.3a.583.583 0 00.571-.571v-.692a5.046 5.046 0 003.952 1.671 8.07 8.07 0 00.041-16.136zm-.652 12.428a3.988 3.988 0 01-3.3-1.671v-5.46a4.422 4.422 0 013.3-1.671 4.405 4.405 0 110 8.8zM77.905 14.588a6.221 6.221 0 011.793.2v3.626s-3.26-1.1-5.3 1.223v10.716h-3.912V14.994h3.3a.582.582 0 01.57.571v.652a5.355 5.355 0 013.549-1.63zM37.283 28.931c-.2-.489-.407-1.018-.611-1.467-.326-.733-.652-1.426-.937-2.078l-.041-.041a432.99 432.99 0 00-9-18.416l-.122-.245q-.5-.951-.977-1.915a11.727 11.727 0 00-1.467-2.241A6.581 6.581 0 0018.949.002a6.838 6.838 0 00-5.215 2.445 13.972 13.972 0 00-1.467 2.241q-.477.963-.977 1.915l-.123.245c-3.137 6.111-6.193 12.3-9 18.416l-.041.081c-.285.653-.611 1.345-.937 2.078q-.305.673-.611 1.467a9.142 9.142 0 00-.489 4.4 8.659 8.659 0 005.3 6.764 8.363 8.363 0 003.3.652 9.2 9.2 0 001.06-.082 10.762 10.762 0 004.075-1.385 20.634 20.634 0 005.044-4.237 21.41 21.41 0 005.052 4.237 10.765 10.765 0 004.074 1.385 9.111 9.111 0 001.06.082 8.218 8.218 0 003.3-.652 8.644 8.644 0 005.3-6.764 7.72 7.72 0 00-.369-4.359zM18.908 31.05a20.092 20.092 0 01-4.115-7.578 6.571 6.571 0 01-.122-2.486 3.946 3.946 0 01.652-1.712 4.327 4.327 0 013.586-1.793 4.173 4.173 0 013.586 1.793 3.964 3.964 0 01.652 1.712 6.558 6.558 0 01-.122 2.486 20.747 20.747 0 01-4.117 7.576zm16.256 1.915a6.055 6.055 0 01-3.707 4.768 6.17 6.17 0 01-3.1.407 8.024 8.024 0 01-3.1-1.059 19.038 19.038 0 01-4.645-3.953 22.984 22.984 0 004.93-9 10.194 10.194 0 00.2-3.464 6.606 6.606 0 00-1.1-2.771A6.866 6.866 0 0018.897 15a6.971 6.971 0 00-5.745 2.893 6.612 6.612 0 00-1.1 2.771 8.464 8.464 0 00.2 3.464c.611 2.689 2.281 5.745 4.93 9.045a18.3 18.3 0 01-4.645 3.953 8 8 0 01-3.1 1.059 6.519 6.519 0 01-3.1-.407 6.055 6.055 0 01-3.686-4.776 6.74 6.74 0 01.367-3.178c.122-.408.326-.815.53-1.3.285-.652.611-1.345.937-2.038l.041-.081a445.16 445.16 0 018.963-18.294l.122-.245c.326-.611.652-1.263.978-1.874a8.944 8.944 0 011.141-1.793 4.278 4.278 0 016.519 0 9.017 9.017 0 011.141 1.793c.326.611.652 1.263.978 1.874l.123.245q4.634 9.082 8.923 18.335v.041c.326.653.611 1.386.937 2.038.2.488.407.9.53 1.3a6.886 6.886 0 01.284 3.137z" fill="#8989a2"/></svg>