<svg xmlns="http://www.w3.org/2000/svg" width="63.436" height="56.44"><path d="M52.157 18.294q-1.013-.347-2.042-.643.171-.693.316-1.393c1.546-7.5.535-13.549-2.916-15.539C44.206-1.19 38.794.8 33.328 5.557q-.808.7-1.579 1.449-.517-.5-1.051-.971C24.969.948 19.227-1.195 15.779.801c-3.306 1.914-4.285 7.6-2.894 14.708q.208 1.056.469 2.1c-.812.231-1.6.477-2.348.738C4.29 20.688.001 24.358.001 28.165c0 3.932 4.6 7.875 11.6 10.266q.851.289 1.715.536-.281 1.125-.5 2.265c-1.327 6.988-.291 12.536 3.007 14.438 3.406 1.964 9.122-.055 14.688-4.92q.66-.577 1.324-1.22.835.806 1.715 1.565c5.391 4.639 10.716 6.513 14.011 4.606 3.4-1.97 4.508-7.93 3.072-15.182q-.164-.831-.38-1.7.6-.178 1.18-.368c7.272-2.409 12-6.3 12-10.289 0-3.82-4.427-7.515-11.279-9.873z" fill="#8989a2"/><path d="M50.579 35.883c-.347.115-.7.226-1.065.333a63.6 63.6 0 00-3.212-8.036 63.577 63.577 0 003.087-7.921c.649.188 1.279.386 1.886.6 5.87 2.021 9.451 5.009 9.451 7.311 0 2.452-3.867 5.636-10.146 7.717zm-2.605 5.163a22.947 22.947 0 01.3 8.372c-.378 2.037-1.138 3.394-2.077 3.938-2 1.157-6.275-.347-10.885-4.314q-.793-.682-1.6-1.454a63.683 63.683 0 005.317-6.752 63.261 63.261 0 008.592-1.324q.194.783.343 1.535zM21.626 53.159c-1.953.69-3.509.709-4.449.167-2-1.154-2.833-5.609-1.7-11.585q.2-1.059.463-2.106a63.724 63.724 0 008.549 1.238 65.944 65.944 0 005.445 6.728q-.591.571-1.209 1.113a22.952 22.952 0 01-7.1 4.446zm-9.15-17.288a22.957 22.957 0 01-7.4-3.93c-1.572-1.351-2.362-2.689-2.362-3.775 0-2.31 3.444-5.256 9.188-7.259q1.081-.375 2.183-.687a64.992 64.992 0 003.092 8.012 65.98 65.98 0 00-3.13 8.126q-.794-.226-1.571-.49zm3.067-20.882c-1.192-6.093-.4-10.689 1.592-11.842 2.122-1.229 6.815.523 11.761 4.915.316.281.634.575.952.879a64.941 64.941 0 00-5.4 6.687 66.217 66.217 0 00-8.465 1.316q-.243-.972-.436-1.955zm27.363 6.757q-.93-1.607-1.929-3.172c2.024.255 3.963.6 5.784 1.011a57.809 57.809 0 01-2.03 5.462q-.879-1.669-1.825-3.3zM31.748 10.877a57.957 57.957 0 013.733 4.507q-3.747-.177-7.5 0a58.558 58.558 0 013.765-4.5zM20.514 21.764q-.933 1.619-1.791 3.28a59.83 59.83 0 01-2.009-5.485c1.81-.405 3.74-.736 5.751-.987q-1.01 1.575-1.945 3.2zm2 16.194a57.7 57.7 0 01-5.846-.94 60.704 60.704 0 012.056-5.6q.861 1.662 1.8 3.282.957 1.652 1.992 3.258zm9.3 7.689a61.145 61.145 0 01-3.817-4.568q1.822.072 3.711.072 1.94 0 3.829-.085a57.629 57.629 0 01-3.714 4.582zm12.943-14.326a57.554 57.554 0 012.13 5.58 57.512 57.512 0 01-5.918 1.009q1.006-1.594 1.948-3.228.957-1.66 1.84-3.361zm-4.187 2.007q-1.441 2.5-3.043 4.91c-1.882.134-3.827.2-5.809.2s-3.894-.061-5.743-.181q-1.643-2.4-3.1-4.918-1.45-2.5-2.706-5.111 1.252-2.607 2.7-5.114 1.444-2.506 3.076-4.9a76.586 76.586 0 0111.563.002q1.614 2.385 3.056 4.88t2.735 5.09q-1.271 2.615-2.726 5.135zm5.59-30.262c2.124 1.225 2.95 6.165 1.616 12.644q-.131.633-.285 1.261a64.919 64.919 0 00-8.482-1.34 63.661 63.661 0 00-5.362-6.692q.713-.687 1.459-1.338c4.683-4.076 9.06-5.685 11.055-4.535z" fill="#fff"/><path d="M31.718 22.502a5.665 5.665 0 11-5.665 5.665 5.665 5.665 0 015.665-5.665" fill="#8989a2"/></svg>