<svg xmlns="http://www.w3.org/2000/svg" width="40" height="40"><g transform="translate(11.34 11.34)"><circle cx="20" cy="20" r="20" transform="translate(-11.34 -11.34)" fill="#e6f7ff"/><path d="M10.284 9.201H7.036a.541.541 0 00-.541.541v7.036a.541.541 0 00.541.541h3.248a.541.541 0 00.541-.541V9.742a.541.541 0 00-.541-.541zm-6.495 3.248H.541A.541.541 0 000 12.99v3.789a.541.541 0 00.541.541h3.248a.541.541 0 00.541-.541V12.99a.541.541 0 00-.541-.541zm12.99-6.495h-3.248a.541.541 0 00-.541.541v10.284a.541.541 0 00.541.541h3.248a.541.541 0 00.541-.541V6.495a.541.541 0 00-.541-.541zM8.66 6.5a.54.54 0 00.383-.159l4.489-4.493V4.33h1.083V.541A.541.541 0 0014.072 0h-3.788v1.083h2.482L8.66 5.189 6.337 2.865a.541.541 0 00-.765 0L2.865 5.571l.765.765 2.324-2.323 2.324 2.324a.54.54 0 00.382.163z" fill="#1890ff"/></g></svg>