<svg xmlns="http://www.w3.org/2000/svg" width="40" height="40"><g transform="translate(11.465 11.465)"><circle cx="20" cy="20" r="20" transform="translate(-11.465 -11.465)" fill="#fff1f0"/><path d="M3.52 7.973V1.006h9.052v6.967l2.907-1.615-1.9-1.115V.5a.5.5 0 00-.5-.5H3.017a.5.5 0 00-.5.5v4.741L.597 6.35z" fill="#f5222d"/><path d="M8.29 11.502a.5.5 0 01-.488 0L0 7.168v8.42a.5.5 0 00.5.5h15.089a.5.5 0 00.5-.5v-8.42z" fill="#f5222d"/><path d="M6.537 7.248L4.673 5.384a.5.5 0 010-.711l1.864-1.864.711.711L5.74 5.029l1.509 1.509zm3.02 0l-.711-.711 1.509-1.509-1.512-1.505.711-.711 1.864 1.861a.5.5 0 010 .711z" fill="#f5222d"/></g></svg>