<svg xmlns="http://www.w3.org/2000/svg" width="72" height="72" viewBox="0 0 72 72"><g transform="translate(-1756.067 -378.462)"><path d="M1756.072,478.465" transform="translate(-0.003 -58.859)" fill="#0032d8"/><path d="M1792.065,378.462v20.574l-18,10.285-18-10.287h0Z" transform="translate(0 0)" fill="#431f5a"/><path d="M1774.068,438.75l18,10.285v20.571h0l-18-10.286-18-10.286V428.463Z" transform="translate(0 -29.429)" fill="#722ed1"/><path d="M1860.67,488.749l0,20.57-18-10.284h0V478.463Z" transform="translate(-50.605 -58.857)" fill="#722ed1"/><path d="M1842.669,378.462l0,0h0v20.571h0l18,10.284v-.005l0,0h0l18,10.284,0-20.57Z" transform="translate(-50.604 0)" fill="#722ed1"/><path d="M1878.667,428.463v20.574l-18,10.285-18-10.287,18-10.287Z" transform="translate(-50.605 -29.429)" fill="#431f5a"/><path d="M1860.67,488.749l-18,10.285h0V478.463Z" transform="translate(-50.605 -58.857)" fill="#431f5a"/></g></svg>