<svg xmlns="http://www.w3.org/2000/svg" xmlns:xlink="http://www.w3.org/1999/xlink" width="57" height="57" viewBox="0 0 57 57"><defs><clipPath id="b"><rect width="57" height="57"/></clipPath></defs><g id="a" clip-path="url(#b)"><g transform="translate(-1756.067 -378.462)"><path d="M1756.072,478.465" transform="translate(-0.004 -67.431)" fill="#0032d8"/><path d="M1784.565,378.462V394.75l-14.248,8.142-14.251-8.144h0Z" transform="translate(0 0)" fill="#431f5a"/><path d="M1770.317,436.607l14.248,8.142v16.285h0l-14.249-8.143-14.249-8.143V428.463Z" transform="translate(0 -33.715)" fill="#722ed1"/><path d="M1856.92,486.606v16.284l-14.247-8.142h0V478.463Z" transform="translate(-58.104 -67.429)" fill="#722ed1"/><path d="M1842.669,378.462l0,0h0v16.285h0l14.247,8.142v0h0l14.247,8.142,0-16.284Z" transform="translate(-58.104)" fill="#722ed1"/><path d="M1871.168,428.463v16.288l-14.248,8.142-14.251-8.144,14.251-8.144Z" transform="translate(-58.104 -33.715)" fill="#431f5a"/><path d="M1856.92,486.606l-14.249,8.143h0V478.463Z" transform="translate(-58.104 -67.429)" fill="#431f5a"/></g></g></svg>