<svg xmlns="http://www.w3.org/2000/svg" width="114" height="114" viewBox="0 0 114 114"><g transform="translate(-1756.067 -378.462)"><path d="M1756.072,478.465" transform="translate(-0.002 -34.858)" fill="#0032d8"/><path d="M1813.064,378.462v32.576l-28.5,16.284-28.5-16.287h0Z" transform="translate(0 0)" fill="#431f5a"/><path d="M1784.568,444.751l28.5,16.284v32.57h0l-28.5-16.286-28.5-16.286v-32.57Z" transform="translate(0 -17.429)" fill="#722ed1"/><path d="M1871.171,494.75l0,32.569-28.495-16.284,0,0V478.463Z" transform="translate(-29.606 -34.857)" fill="#722ed1"/><path d="M1842.669,378.462l0,0,0,0v32.57l0,0,28.495,16.284v-.008l0,.008,0,0,28.495,16.284,0-32.569Z" transform="translate(-29.605)" fill="#722ed1"/><path d="M1899.666,428.463v32.576l-28.5,16.284-28.5-16.287,28.5-16.288Z" transform="translate(-29.606 -17.429)" fill="#431f5a"/><path d="M1871.171,494.75l-28.5,16.285,0,0V478.463Z" transform="translate(-29.606 -34.857)" fill="#431f5a"/></g></svg>